<svg xmlns="http://www.w3.org/2000/svg" version="1.1" xmlns:xlink="http://www.w3.org/1999/xlink" width="640" height="640.026"><svg xmlns="http://www.w3.org/2000/svg" version="1.1" xmlns:xlink="http://www.w3.org/1999/xlink" width="640" height="640.026"><svg id="uuid-ca56048f-a0a5-49b7-b1d5-954f3837b9ff" xmlns="http://www.w3.org/2000/svg" xmlns:xlink="http://www.w3.org/1999/xlink" viewBox="0 0 640 640.026"><defs><radialGradient id="uuid-7c8e0c8e-db90-450f-91fe-b9fbbad19be0" cx="130.872" cy="500.239" fx="130.872" fy="500.239" r="441.045" gradientTransform="translate(0 640.052) scale(1 -1)" gradientUnits="userSpaceOnUse"><stop offset="0" stop-color="#ef4638"></stop><stop offset=".3" stop-color="#ee3f38"></stop><stop offset="1" stop-color="#b01f25"></stop></radialGradient><linearGradient id="uuid-4a473613-371c-476f-8bc1-821c25b93e79" x1="320" y1="592.036" x2="320" y2="519.072" gradientTransform="translate(0 640.052) scale(1 -1)" gradientUnits="userSpaceOnUse"><stop offset="0" stop-color="#00a651"></stop><stop offset=".5" stop-color="#39b54a"></stop><stop offset="1" stop-color="#8dc63f"></stop></linearGradient></defs><path d="M0,320.026c0,176.73,143.27,320,320,320s320-143.269,320-320c0-165.818-126.121-302.176-287.668-318.387C163.196-17.34,0,130.95,0,320.026Z" fill="#231f20"></path><circle cx="320" cy="320.026" r="320" fill="url(#uuid-7c8e0c8e-db90-450f-91fe-b9fbbad19be0)"></circle><g id="uuid-75b69562-5650-4104-92ab-169d69d9dc49"><path d="M296.613,64.416l-38.951,22.52c-5.42,3.134-5.376,10.101,0,13.21l38.951,22.52c5.996,3.464,13.977-.325,13.977-6.605v-45.04c0-6.294-7.993-10.062-13.977-6.605Z" fill="#56190c" isolation="isolate" opacity=".75"></path><path d="M382.336,86.936l-38.951-22.52c-5.996-3.463-13.977.324-13.977,6.604v45.04c0,6.213,7.931,10.097,13.977,6.605l38.951-22.52c5.41-3.128,5.388-10.094,0-13.209Z" fill="#56190c" isolation="isolate" opacity=".75"></path><path d="M383.606,77.818l-43.204-28.472c-5.312-3.5-12.402.318-12.402,6.68v56.944c0,6.361,7.09,10.18,12.402,6.68l43.204-28.472c4.793-3.158,4.793-10.202,0-13.36ZM299.598,49.346l-43.204,28.472c-4.793,3.158-4.793,10.202,0,13.36l43.204,28.472c5.312,3.5,12.402-.318,12.402-6.68v-56.944c0-6.361-7.09-10.18-12.402-6.68Z" fill="url(#uuid-4a473613-371c-476f-8bc1-821c25b93e79)"></path></g></svg></svg><style>@media (prefers-color-scheme: light) { :root { filter: none; } }
@media (prefers-color-scheme: dark) { :root { filter: none; } }
</style></svg>