<?xml version="1.0" encoding="UTF-8"?><svg id="uuid-9cca700b-d141-4b52-90fd-f2cdcddef8ff" xmlns="http://www.w3.org/2000/svg" xmlns:xlink="http://www.w3.org/1999/xlink" viewBox="0 0 2381.413 690.126"><defs><radialGradient id="uuid-c41d1d1f-a02a-4c49-ad16-038246b9ff69" cx="130.872" cy="500.239" fx="130.872" fy="500.239" r="441.045" gradientTransform="translate(0 640.052) scale(1 -1)" gradientUnits="userSpaceOnUse"><stop offset="0" stop-color="#ef4638"/><stop offset=".3" stop-color="#ee3f38"/><stop offset="1" stop-color="#b01f25"/></radialGradient><radialGradient id="uuid-7503c193-d10b-4a5b-b667-4a1190568cf2" cx="1073.892" cy="506.951" fx="1073.892" fy="506.951" r="38.144" gradientTransform="translate(0 640.052) scale(1 -1)" gradientUnits="userSpaceOnUse"><stop offset="0" stop-color="#ef4638"/><stop offset=".3" stop-color="#ee3f38"/><stop offset="1" stop-color="#b01f25"/></radialGradient><linearGradient id="uuid-618baf3a-3cae-4598-95eb-788becede4a6" x1="320" y1="592.036" x2="320" y2="519.072" gradientTransform="translate(0 640.052) scale(1 -1)" gradientUnits="userSpaceOnUse"><stop offset="0" stop-color="#00a651"/><stop offset=".5" stop-color="#39b54a"/><stop offset="1" stop-color="#8dc63f"/></linearGradient></defs><g id="uuid-ad0cb8b3-ebbb-473c-a7fc-998e73600c54"><g opacity=".15"><path d="M402.369,591.422c7.032,3.015,11.679,5.867,14.62,8.073-2.941,2.206-7.588,5.058-14.62,8.073-44.249,18.971-120.489,18.972-164.738,0-7.032-3.015-11.679-5.867-14.62-8.073,2.941-2.206,7.588-5.058,14.62-8.073,44.249-18.971,120.489-18.972,164.738,0Z" fill="#ee4238" isolation="isolate" opacity=".05"/><path d="M404.068,587.457c11.043,4.735,16.852,9.27,19.461,12.037-2.61,2.767-8.418,7.302-19.461,12.037-45.337,19.439-122.799,19.438-168.136,0-11.043-4.735-16.852-9.27-19.461-12.037,2.61-2.767,8.418-7.302,19.461-12.037,45.337-19.439,122.798-19.438,168.136,0Z" fill="#ea3e37" isolation="isolate" opacity=".1"/><path d="M320,569.014c34.879,0,65.12,6.116,85.591,14.892,13.956,5.983,20.401,11.909,22.501,15.098.125.19.224.353.301.49-.077.137-.176.301-.301.49-8.32,12.597-49.072,29.99-108.092,29.99-34.879,0-65.12-6.116-85.591-14.892-13.956-5.983-20.401-11.909-22.501-15.098-.125-.19-.224-.353-.301-.49.077-.137.176-.301.301-.49,8.32-12.597,49.072-29.99,108.092-29.99Z" fill="#e03a34" isolation="isolate" opacity=".15"/><path d="M406.955,580.723c14.241,6.106,21.392,12.378,24.027,16.375,1.077,1.633,1.07,2.358,1.067,2.396.004.038.01.763-1.067,2.396-2.635,3.997-9.786,10.269-24.027,16.375-47.183,20.23-126.727,20.229-173.91,0-14.241-6.106-21.392-12.378-24.027-16.375-1.077-1.633-1.07-2.358-1.067-2.396-.004-.038-.01-.763,1.067-2.396,2.635-3.997,9.786-10.269,24.027-16.375,47.183-20.23,126.727-20.229,173.91,0Z" fill="#d93632" isolation="isolate" opacity=".2"/><path d="M408.178,577.872c14.497,6.215,22.282,12.796,25.395,17.518,2.089,3.169,2.09,5.037,0,8.206-3.114,4.722-10.898,11.303-25.395,17.518-47.966,20.565-128.389,20.563-176.356,0-14.497-6.215-22.282-12.796-25.395-17.518-2.089-3.169-2.09-5.037,0-8.206,3.114-4.722,10.898-11.303,25.395-17.518,47.966-20.565,128.389-20.563,176.356,0Z" fill="#d43330" isolation="isolate" opacity=".25"/><path d="M409.273,575.318c14.726,6.314,23.078,13.171,26.62,18.543,2.709,4.108,2.708,7.157,0,11.266-3.541,5.373-11.894,12.229-26.62,18.543-48.664,20.864-129.882,20.864-178.546,0-14.726-6.314-23.078-13.171-26.62-18.543-2.709-4.108-2.708-7.157,0-11.266,3.541-5.373,11.894-12.229,26.62-18.543,48.664-20.864,129.882-20.864,178.546,0Z" fill="#cf302e" isolation="isolate" opacity=".3"/><path d="M410.254,573.03c14.932,6.402,23.793,13.507,27.718,19.461,3.261,4.946,3.261,9.062,0,14.008-3.925,5.954-12.786,13.059-27.718,19.461-49.291,21.133-131.217,21.133-180.508,0-14.932-6.402-23.793-13.507-27.718-19.461-3.261-4.946-3.261-9.062,0-14.008,3.925-5.954,12.786-13.059,27.718-19.461,49.291-21.133,131.217-21.133,180.508,0Z" fill="#ca2e2d" isolation="isolate" opacity=".35"/><path d="M411.133,570.979c15.115,6.48,24.432,13.808,28.701,20.283,3.619,5.49,3.887,10.568,0,16.464-4.269,6.475-13.586,13.803-28.701,20.283-49.853,21.374-132.412,21.373-182.266,0-15.115-6.48-24.432-13.808-28.701-20.283-3.619-5.49-3.887-10.568,0-16.464,4.269-6.475,13.586-13.803,28.701-20.283,49.853-21.374,132.412-21.373,182.266,0Z" fill="#c72c2b" isolation="isolate" opacity=".4"/><path d="M411.921,569.142c15.28,6.551,25.005,14.078,29.583,21.02,4.195,6.362,4.195,12.301,0,18.664-4.577,6.943-14.302,14.469-29.583,21.02-50.357,21.589-133.485,21.59-183.842,0-15.28-6.551-25.005-14.078-29.583-21.02-4.195-6.362-4.195-12.301,0-18.664,4.577-6.943,14.302-14.469,29.583-21.02,50.357-21.589,133.485-21.59,183.842,0Z" fill="#c32a2a" isolation="isolate" opacity=".45"/><path d="M412.627,567.496c15.428,6.614,25.519,14.32,30.372,21.681,4.59,6.962,4.59,13.674,0,20.636-4.853,7.361-14.944,15.066-30.372,21.681-50.81,21.784-134.444,21.783-185.254,0-15.428-6.614-25.519-14.32-30.372-21.681-4.59-6.962-4.59-13.674,0-20.636,4.853-7.361,14.944-15.066,30.372-21.681,50.81-21.784,134.444-21.783,185.254,0Z" fill="#c02829" isolation="isolate" opacity=".5"/><path d="M413.259,566.02c15.56,6.671,25.979,14.536,31.08,22.272,12.682,19.233-9.945,35.613-31.08,44.674-51.215,21.957-135.303,21.956-186.518,0-21.189-9.084-43.748-25.461-31.08-44.674,5.1-7.736,15.519-15.601,31.08-22.272,51.215-21.957,135.303-21.956,186.518,0Z" fill="#bd2628" isolation="isolate" opacity=".55"/><path d="M413.825,564.7c15.679,6.722,26.391,14.73,31.713,22.802,13.292,20.16-9.548,37.284-31.713,46.786-51.578,22.112-136.073,22.113-187.65,0-22.18-9.51-45.001-26.631-31.713-46.786,5.322-8.072,16.034-16.08,31.713-22.802,51.578-22.112,136.073-22.113,187.65,0Z" fill="#bb2527" isolation="isolate" opacity=".6"/><path d="M414.333,563.516c15.785,6.767,26.761,14.904,32.281,23.277,13.814,20.955-9.193,38.781-32.281,48.679-51.905,22.252-136.761,22.252-188.666,0-23.083-9.896-46.098-27.725-32.281-48.679,5.521-8.373,16.496-16.51,32.281-23.277,51.905-22.252,136.761-22.252,188.666,0Z" fill="#b92427" isolation="isolate" opacity=".65"/><path d="M414.788,562.455c15.88,6.808,27.092,15.06,32.79,23.703,5.73,8.69,5.867,17.773,0,26.674-5.698,8.643-16.91,16.894-32.79,23.703-52.192,22.377-137.383,22.376-189.576,0-15.88-6.808-27.092-15.06-32.79-23.703-5.73-8.69-5.867-17.773,0-26.674,5.698-8.643,16.91-16.894,32.79-23.703,52.192-22.377,137.383-22.376,189.576,0Z" fill="#b72326" isolation="isolate" opacity=".7"/><path d="M415.195,561.505c15.965,6.845,27.388,15.199,33.246,24.084s6.193,18.418,0,27.812c-5.857,8.885-17.28,17.239-33.246,24.084-52.453,22.488-137.937,22.489-190.39,0-15.965-6.845-27.388-15.199-33.246-24.084s-6.193-18.418,0-27.812c5.858-8.885,17.28-17.239,33.246-24.084,52.453-22.488,137.937-22.489,190.39,0Z" fill="#b52226" isolation="isolate" opacity=".75"/><path d="M415.56,560.653c16.042,6.878,27.654,15.324,33.654,24.425,6.132,9.301,6.329,19.231,0,28.832-6,9.101-17.612,17.548-33.654,24.425-52.686,22.587-138.434,22.589-191.12,0-16.042-6.878-27.654-15.324-33.654-24.425-6.132-9.301-6.329-19.231,0-28.832,6-9.101,17.612-17.548,33.654-24.425,52.686-22.587,138.434-22.589,191.12,0Z" fill="#b42125" isolation="isolate" opacity=".8"/><path d="M415.887,559.89c16.11,6.907,27.892,15.436,34.02,24.731,6.414,9.729,6.414,20.017,0,29.746-6.128,9.295-17.91,17.824-34.02,24.731-52.895,22.678-138.879,22.678-191.774,0-16.11-6.907-27.892-15.436-34.02-24.731-6.414-9.729-6.414-20.017,0-29.746,6.128-9.295,17.91-17.824,34.02-24.731,52.895-22.678,138.879-22.678,191.774,0Z" fill="#b22125" isolation="isolate" opacity=".85"/><path d="M416.18,559.206c16.172,6.933,28.105,15.536,34.348,25.005,6.578,9.978,6.578,20.586,0,30.564-6.243,9.469-18.176,18.072-34.348,25.005-53.083,22.757-139.277,22.757-192.36,0-16.172-6.933-28.105-15.536-34.348-25.005-6.578-9.978-6.578-20.586,0-30.564,6.243-9.469,18.176-18.072,34.348-25.005,53.083-22.757,139.277-22.757,192.36,0Z" fill="#b12025" isolation="isolate" opacity=".9"/><path d="M416.443,558.594c16.227,6.957,28.296,15.626,34.642,25.251,6.725,10.201,6.725,21.097,0,31.298-6.346,9.625-18.415,18.294-34.642,25.251-53.25,22.83-139.636,22.83-192.886,0-16.227-6.957-28.296-15.626-34.642-25.251-6.725-10.201-6.725-21.097,0-31.298,6.346-9.625,18.415-18.294,34.642-25.251,53.25-22.83,139.636-22.83,192.886,0Z" fill="#b01f25" isolation="isolate" opacity=".95"/><path d="M478.3,565.902c13.907,21.092,13.907,46.091,0,67.184-50.143,76.054-266.456,76.053-316.6,0-13.907-21.093-13.907-46.091,0-67.184,50.197-76.136,266.499-75.987,316.6,0Z" fill="#ea3e37" isolation="isolate" opacity=".1"/><path d="M475.073,568.03c13.055,19.803,13.056,43.128,0,62.93-48.603,73.72-261.544,73.72-310.146,0-13.055-19.803-13.056-43.128,0-62.93,48.64-73.776,261.575-73.674,310.146,0Z" fill="#e03a34" isolation="isolate" opacity=".15"/><path d="M472.183,569.936c12.293,18.646,12.293,40.472,0,59.118-47.193,71.582-257.147,71.622-304.366,0-12.293-18.645-12.293-40.473,0-59.118,47.277-71.71,257.219-71.513,304.366,0Z" fill="#d93632" isolation="isolate" opacity=".2"/><path d="M469.593,571.643c18.275,27.72,10.018,65.79-44.415,89.128-79.488,34.08-218.488,21.609-254.771-33.424-18.275-27.72-10.018-65.79,44.415-89.128,79.488-34.08,218.488-21.609,254.771,33.424Z" fill="#d43330" isolation="isolate" opacity=".25"/><path d="M467.272,573.172c17.489,26.527,9.24,62.565-43.189,85.043-58.146,24.929-150.02,24.929-208.166,0-52.597-22.55-60.569-58.683-43.189-85.043,44.95-68.176,249.782-67.894,294.544,0Z" fill="#cf302e" isolation="isolate" opacity=".3"/><path d="M423.102,543.062c17.62,7.554,33.142,17.906,42.092,31.481,16.55,25.102,9.051,59.456-42.092,81.383-57.518,24.66-148.686,24.66-206.204,0-51.125-21.919-58.622-56.313-42.092-81.383,34.509-52.338,170.578-64.801,248.296-31.481Z" fill="#ca2e2d" isolation="isolate" opacity=".35"/><path d="M422.223,545.112c17.436,7.475,32.502,17.605,41.108,30.659,9.957,15.103,9.957,32.343,0,47.446-8.606,13.053-23.672,23.184-41.108,30.659-76.931,32.981-211.841,20.48-245.554-30.659-9.957-15.103-9.957-32.343,0-47.446,33.803-51.274,168.763-63.58,245.554-30.659Z" fill="#c72c2b" isolation="isolate" opacity=".4"/><path d="M421.435,546.949c17.271,7.405,31.929,17.336,40.227,29.922,9.517,14.435,9.517,30.811,0,45.246-8.298,12.586-22.956,22.517-40.227,29.922-76.379,32.746-210.118,20.1-243.097-29.922-9.517-14.435-9.517-30.811,0-45.246,32.864-49.848,166.354-62.824,243.097-29.922Z" fill="#c32a2a" isolation="isolate" opacity=".45"/><path d="M420.73,548.595c17.124,7.341,31.414,17.094,39.437,29.262,9.122,13.835,9.121,29.438,0,43.274-8.021,12.168-22.314,21.92-39.437,29.262-76.492,32.797-208.817,19.393-240.897-29.262-9.122-13.835-9.121-29.438,0-43.274,32.155-48.778,164.561-61.987,240.897-29.262Z" fill="#c02829" isolation="isolate" opacity=".5"/><path d="M420.097,550.071c16.991,7.285,30.955,16.878,38.73,28.67,8.769,13.299,8.767,28.208,0,41.508-7.774,11.794-21.739,21.386-38.73,28.67-75.568,32.397-207.235,19.39-238.924-28.67-8.769-13.299-8.767-28.208,0-41.508,31.604-47.944,163.114-61.174,238.924-28.67Z" fill="#bd2628" isolation="isolate" opacity=".55"/><path d="M419.531,551.391c16.873,7.234,30.543,16.684,38.096,28.14,8.452,12.819,8.452,27.105,0,39.924-7.553,11.456-21.224,20.906-38.096,28.14-75.318,32.292-206.065,19.02-237.158-28.14-8.452-12.819-8.452-27.105,0-39.924,30.967-46.965,161.382-60.628,237.158-28.14Z" fill="#bb2527" isolation="isolate" opacity=".6"/><path d="M419.023,552.576c16.766,7.188,30.174,16.51,37.528,27.665,8.167,12.389,8.168,26.117,0,38.506-7.355,11.155-20.762,20.477-37.528,27.665-75.037,32.17-204.986,18.734-235.574-27.665-8.167-12.389-8.168-26.117,0-38.506,30.595-46.403,160.455-59.871,235.574-27.665Z" fill="#b92427" isolation="isolate" opacity=".65"/><path d="M418.568,553.637c16.671,7.147,29.843,16.354,37.02,27.24,7.914,12.004,7.914,25.232,0,37.236-30.211,45.825-159.454,59.266-234.156,27.24-16.671-7.147-29.843-16.354-37.02-27.24-7.914-12.004-7.914-25.232,0-37.236,30.211-45.825,159.454-59.266,234.156-27.24Z" fill="#b72326" isolation="isolate" opacity=".7"/><path d="M418.161,554.587c16.586,7.111,29.546,16.215,36.564,26.859,7.686,11.658,7.686,24.44,0,36.098-7.018,10.644-19.978,19.748-36.564,26.859-74.541,31.959-203.129,18.274-232.886-26.859-7.686-11.658-7.686-24.44,0-36.098,29.659-44.985,157.997-58.967,232.886-26.859Z" fill="#b52226" isolation="isolate" opacity=".75"/><path d="M417.796,555.438c16.51,7.078,29.281,16.09,36.155,26.517,7.482,11.348,7.482,23.73,0,35.078-6.875,10.427-19.646,19.439-36.155,26.517-54.117,23.201-141.475,23.201-195.592,0-16.51-7.078-29.281-16.09-36.155-26.517-7.482-11.349-7.482-23.73,0-35.078,6.875-10.427,19.646-19.439,36.155-26.517,54.117-23.201,141.475-23.201,195.592,0Z" fill="#b42125" isolation="isolate" opacity=".8"/><path d="M417.469,556.201c16.441,7.049,29.043,15.978,35.79,26.211,7.299,11.07,7.299,23.094,0,34.164-6.747,10.233-19.348,19.162-35.79,26.211-53.908,23.111-141.03,23.112-194.938,0-16.441-7.049-29.043-15.978-35.79-26.211-7.299-11.07-7.299-23.094,0-34.164,6.747-10.233,19.348-19.162,35.79-26.211,53.908-23.111,141.03-23.112,194.938,0Z" fill="#b22125" isolation="isolate" opacity=".85"/><path d="M417.176,556.885c16.38,7.023,28.829,15.877,35.462,25.937,7.135,10.822,7.135,22.524,0,33.346-6.632,10.06-19.082,18.914-35.462,25.937-53.718,23.031-140.634,23.031-194.352,0-16.38-7.023-28.829-15.877-35.462-25.937-7.135-10.822-7.135-22.524,0-33.346,6.632-10.06,19.082-18.914,35.462-25.937,53.718-23.031,140.634-23.031,194.352,0Z" fill="#b12025" isolation="isolate" opacity=".9"/><path d="M416.913,557.497c16.325,6.999,28.638,15.787,35.168,25.691,6.988,10.599,6.988,22.013,0,32.612-6.53,9.904-18.843,18.692-35.168,25.691-53.548,22.957-140.278,22.958-193.826,0-16.325-6.999-28.638-15.787-35.168-25.691-6.988-10.599-6.988-22.013,0-32.612,6.53-9.904,18.843-18.692,35.168-25.691,53.548-22.957,140.278-22.958,193.826,0Z" fill="#b01f25" isolation="isolate" opacity=".95"/><ellipse cx="320" cy="599.494" rx="136.723" ry="58.617" fill="#9f1c20" isolation="isolate" opacity=".25"/></g><path d="M0,320.026c0,176.73,143.27,320,320,320s320-143.269,320-320c0-165.818-126.121-302.176-287.668-318.387C163.196-17.34,0,130.95,0,320.026Z" fill="#231f20"/><circle cx="320" cy="320.026" r="320" fill="url(#uuid-c41d1d1f-a02a-4c49-ad16-038246b9ff69)"/><circle cx="1090.249" cy="148.687" r="27.675" fill="url(#uuid-7503c193-d10b-4a5b-b667-4a1190568cf2)"/><path d="M911.112,213.851c-83.529,0-134.352,56.859-134.352,147.434v219.39h44.28v-157.498h1.007c17.611,31.701,56.86,52.332,99.128,52.332,71.453,0,124.791-56.86,124.791-131.836,0-71.956-60.383-129.822-134.854-129.822ZM911.112,431.229c-50.319,0-90.071-36.734-90.071-83.027,0-52.332,37.739-90.071,90.071-90.071,51.828,0,89.567,34.72,89.567,84.536,0,50.318-39.249,88.562-89.567,88.562ZM1068.108,469.973h44.28v-251.595h-44.28v251.595ZM1212.02,362.793v-101.643h59.376v-42.771h-59.376v-68.434h-44.281v68.434h-34.72v42.771h34.72v113.218c0,87.555,73.969,99.631,123.785,99.631v-42.771c-34.721,0-79.504-4.529-79.504-68.435ZM1418.323,210.83c-74.472,0-134.854,57.868-134.854,129.824,0,75.479,53.841,129.319,128.816,129.319,40.255,0,79.001-21.134,95.103-52.332h1.007v51.829h44.28v-117.746c0-89.568-49.312-140.894-134.352-140.894ZM1418.323,425.693c-50.822,0-89.567-36.733-89.567-85.039,0-50.319,37.236-85.543,89.567-85.543s90.071,37.236,90.071,89.065c0,45.286-40.256,81.517-90.071,81.517ZM1695.073,204.29c-73.969,0-122.275,50.318-122.275,127.81v137.874h44.28v-126.301c0-59.88,29.688-96.612,77.995-96.612,49.815,0,77.994,35.224,77.994,96.612v126.301h44.28v-137.874c0-77.491-48.306-127.81-122.274-127.81ZM1966.283,213.849c-70.949,0-128.817,55.352-128.817,124.288,0,71.956,51.325,125.798,119.256,125.798,43.777,0,72.962-16.103,92.587-49.815h1.006v50.318c0,66.421-43.777,92.587-93.09,92.587v40.255c74.976,0,137.371-43.274,137.371-133.848v-108.187c0-87.555-48.81-141.396-128.313-141.396ZM1966.282,419.654c-46.797,0-83.529-35.726-83.529-82.522,0-46.294,34.72-79.001,83.529-79.001s84.032,35.224,84.032,84.033c0,43.273-37.235,77.49-84.032,77.49ZM2247.061,210.83c-74.472,0-134.854,57.868-134.854,129.824,0,75.479,53.841,129.319,128.816,129.319,40.255,0,79.001-21.134,95.103-52.332h1.007v51.829h44.28v-117.746c0-89.568-49.312-140.894-134.352-140.894ZM2247.061,425.693c-50.822,0-89.567-36.733-89.567-85.039,0-50.319,37.236-85.543,89.567-85.543s90.071,37.236,90.071,89.065c0,45.286-40.256,81.517-90.071,81.517Z" fill="#f7f7f7"/></g><g id="uuid-537b72da-37e6-4416-966e-20d3021eeea0"><path d="M296.613,64.416l-38.951,22.52c-5.42,3.134-5.376,10.101,0,13.21l38.951,22.52c5.996,3.464,13.977-.325,13.977-6.605v-45.04c0-6.294-7.993-10.062-13.977-6.605Z" fill="#56190c" isolation="isolate" opacity=".75"/><path d="M382.336,86.936l-38.951-22.52c-5.996-3.463-13.977.324-13.977,6.604v45.04c0,6.213,7.931,10.097,13.977,6.605l38.951-22.52c5.41-3.128,5.388-10.094,0-13.209Z" fill="#56190c" isolation="isolate" opacity=".75"/><path d="M383.606,77.818l-43.204-28.472c-5.312-3.5-12.402.318-12.402,6.68v56.944c0,6.361,7.09,10.18,12.402,6.68l43.204-28.472c4.793-3.158,4.793-10.202,0-13.36ZM299.598,49.346l-43.204,28.472c-4.793,3.158-4.793,10.202,0,13.36l43.204,28.472c5.312,3.5,12.402-.318,12.402-6.68v-56.944c0-6.361-7.09-10.18-12.402-6.68Z" fill="url(#uuid-618baf3a-3cae-4598-95eb-788becede4a6)"/></g></svg>